<svg width="169px" height="169px" viewBox="0 0 64 64" version="1.1" xmlns="http://www.w3.org/2000/svg" xmlns:xlink="http://www.w3.org/1999/xlink" xml:space="preserve" xmlns:serif="http://www.serif.com/" style="fill-rule:evenodd;clip-rule:evenodd;stroke-linejoin:round;stroke-miterlimit:2;">
    <g transform="matrix(2.666667,0,0,2.666667,-24,-82.666667)">
        <path d="M28,52L14,52C12.9,52 12,51.1 12,50L12,36C12,34.9 12.9,34 14,34L28,34C29.1,34 30,34.9 30,36L30,50C30,51.1 29.1,52 28,52ZM15.287,40.267C15.224,40.521 15.178,40.78 15.151,41.042C15.146,41.089 15.157,41.137 15.18,41.178L15.457,41.668C15.581,41.887 15.918,41.778 15.889,41.529L15.741,40.298C15.711,40.047 15.348,40.021 15.287,40.267ZM25.384,47.68C25.944,47.29 26.428,46.803 26.814,46.245C26.93,46.077 26.778,45.854 26.576,45.893L22.396,46.715C22.147,46.764 22.147,47.115 22.396,47.164L25.205,47.716C25.267,47.728 25.332,47.716 25.384,47.68ZM23.022,48.806C23.252,48.784 23.48,48.749 23.705,48.699C23.96,48.644 23.944,48.278 23.684,48.247L22.616,48.122C22.364,48.092 22.255,48.427 22.475,48.549L22.886,48.777C22.928,48.8 22.975,48.81 23.022,48.806ZM26.101,38.781L21.424,43.694C21.252,43.878 21.46,44.162 21.69,44.057L27.477,41.415C27.575,41.371 27.631,41.265 27.607,41.162C27.437,40.419 27.106,39.452 26.463,38.808C26.358,38.704 26.203,38.673 26.101,38.781ZM21.094,36.234C20.391,36.233 19.695,36.362 19.041,36.613C18.962,36.643 18.906,36.716 18.896,36.8L18.301,41.764C18.271,42.012 18.609,42.121 18.733,41.902L21.735,36.593C21.817,36.448 21.721,36.266 21.554,36.252C21.401,36.24 21.247,36.234 21.094,36.234ZM17.72,37.204C17.174,37.634 16.501,38.237 16.1,38.79C16.062,38.842 16.048,38.907 16.061,38.97L16.638,41.842C16.687,42.088 17.042,42.088 17.091,41.842L18.091,37.424C18.127,37.217 17.886,37.074 17.72,37.204ZM22.724,36.542L20.049,42.281C19.943,42.508 20.23,42.715 20.416,42.545L25.41,37.973C25.512,37.88 25.508,37.721 25.404,37.63C24.825,37.127 23.517,36.611 23.015,36.423C22.902,36.381 22.775,36.433 22.724,36.542ZM27.388,42.416L22.073,45.36C21.852,45.483 21.961,45.817 22.213,45.787L27.155,45.207C27.238,45.197 27.311,45.144 27.342,45.067C27.612,44.402 27.751,43.691 27.75,42.974C27.75,42.872 27.742,42.73 27.732,42.599C27.719,42.432 27.536,42.334 27.388,42.416Z" style="fill:rgb(229,115,115);"/>
    </g>
</svg>
