<svg width="100%" height="100%" viewBox="0 0 24 24" version="1.1" xmlns="http://www.w3.org/2000/svg" xmlns:xlink="http://www.w3.org/1999/xlink" xml:space="preserve" xmlns:serif="http://www.serif.com/" style="fill-rule:evenodd;clip-rule:evenodd;stroke-linecap:round;stroke-linejoin:round;stroke-miterlimit:1.5;">
    <g transform="matrix(1,0,0,1,-300,-65)">
        <g id="Solr-Dashboard-Widgets---Index-by-Type" serif:id="Solr Dashboard Widgets - Index by Type" transform="matrix(0.24,0,0,0.24,299.52,65.24)">
            <rect x="2" y="-1" width="100" height="100" style="fill:none;"/>
            <g transform="matrix(4.487179,0,0,4.861111,-677.166667,-325.305556)">
                <path d="M169,74L169,80C169,81.656 167.544,83 165.75,83L159.25,83C157.456,83 156,81.656 156,80L156,74C156,72.344 157.456,71 159.25,71L165.75,71C167.544,71 169,72.344 169,74Z" style="fill:rgb(87,117,144);"/>
            </g>
            <g transform="matrix(4.487179,0,0,4.861111,-677.166667,-325.305556)">
                <path d="M169.484,74L169.484,80C169.484,81.902 167.811,83.446 165.75,83.446L159.25,83.446C157.189,83.446 155.516,81.902 155.516,80L155.516,74C155.516,72.098 157.189,70.554 159.25,70.554L165.75,70.554C167.811,70.554 169.484,72.098 169.484,74ZM168.516,74C168.516,72.591 167.277,71.446 165.75,71.446L159.25,71.446C157.723,71.446 156.484,72.591 156.484,74L156.484,80C156.484,81.409 157.723,82.554 159.25,82.554L165.75,82.554C167.277,82.554 168.516,81.409 168.516,80L168.516,74Z"/>
            </g>
            <g transform="matrix(4.166667,0,0,4.166667,-1248,-271.833333)">
                <path d="M308.018,83.967L308,78L311,78L311,84" style="fill:none;stroke:black;stroke-width:1.04px;"/>
            </g>
            <g transform="matrix(4.166667,0,0,6.944444,-1227.158483,-505.166667)">
                <path d="M308.018,83.967L308,78L311,78L311,84" style="fill:none;stroke:black;stroke-width:0.76px;"/>
            </g>
            <g transform="matrix(4.166667,0,0,4.166667,-1248,-271.833333)">
                <path d="M308.018,83.967L308,78L311,78L311,84" style="fill-opacity:0.4;"/>
            </g>
            <g transform="matrix(4.166667,0,0,4.166667,-1248,-271.833333)">
                <path d="M308.539,83.965C308.54,84.253 308.307,84.487 308.02,84.488C307.732,84.489 307.498,84.256 307.497,83.969L307.479,78.002C307.479,77.863 307.533,77.73 307.631,77.632C307.729,77.534 307.862,77.479 308,77.479L311,77.479C311.288,77.479 311.521,77.712 311.521,78L311.521,84C311.521,84.287 311.287,84.521 311,84.521C310.713,84.521 310.479,84.287 310.479,84L310.479,78.521L308.522,78.521L308.539,83.965Z" style="fill:none;"/>
            </g>
            <g transform="matrix(4.166667,0,0,6.944444,-1227.158483,-505.166667)">
                <path d="M308.018,83.967L308,78L311,78L311,84" style="fill-opacity:0.4;"/>
            </g>
            <g transform="matrix(4.166667,0,0,6.944444,-1227.158483,-505.166667)">
                <path d="M308.539,83.966C308.54,84.139 308.307,84.279 308.019,84.28C307.732,84.28 307.498,84.14 307.497,83.968L307.479,78.001C307.479,77.918 307.534,77.838 307.631,77.779C307.729,77.721 307.862,77.688 308,77.688L311,77.688C311.288,77.688 311.521,77.827 311.521,78L311.521,84C311.521,84.172 311.287,84.312 311,84.313C310.713,84.313 310.479,84.172 310.479,84L310.479,78.312L308.522,78.313L308.539,83.966Z" style="fill:none;"/>
            </g>
        </g>
        <g id="Colors">
        </g>
    </g>
</svg>
