<svg xmlns="http://www.w3.org/2000/svg" viewBox="0 0 64 64">
  <path d="M46.766601,20.088389l-14.850287,15.595645c-.545752.583958.116845,1.486603.846645,1.15337l18.3712-8.388462c.309176-.141173.488515-.475428.413046-.804041-.541409-2.357425-1.590608-5.427882-3.634012-7.471286-.33222-.33222-.825298-.429012-1.146592-.085226ZM30.869277,12.000011c-2.230283-.002408-4.440202.406359-6.51702,1.204058-.252078.096822-.427399.328024-.459262.593776l-1.88928,15.757489c-.094709.789922.977416,1.134703,1.369926.44055l9.530852-16.8553c.259801-.459458-.044328-1.037987-.57454-1.080905-.485731-.039317-.973019-.059235-1.460676-.059668ZM44.487627,48.336948c1.779888-1.238371,3.316668-2.781779,4.539686-4.553647.368948-.53452-.113327-1.243593-.754862-1.117498l-13.270667,2.608382c-.788329.154948-.788336,1.27067-.000009,1.425628l8.91922,1.753214c.196735.038671.402543-.001912.566633-.116079ZM36.045057,12.978546l-8.492743,18.218351c-.336707.722292.57529,1.3781,1.165324.837972l15.854256-14.51329c.322951-.295636.311344-.799825-.019246-1.087071-1.839054-1.597932-5.989352-3.237614-7.583393-3.832181-.360513-.134469-.762796.029986-.924197.376218ZM36.991773,51.911071c.729463-.068512,1.452983-.181169,2.166565-.336978.811238-.177133.758673-1.337989-.066286-1.434872l-3.391522-.398298c-.798092-.093727-1.146508.967286-.445236,1.355854l1.30419.72264c.131354.072782.282425.10573.432289.091655ZM12.435413,24.80396c-.201883.807941-.346317,1.63015-.431713,2.460616-.015417.149926.017751.301377.092098.432892l.879001,1.554889c.392452.694219,1.464655.349491,1.369966-.440463l-.468553-3.908958c-.095543-.797075-1.2461-.878166-1.440798-.098975ZM20.159746,15.081307c-1.735321,1.364888-3.870874,3.277722-5.143821,5.034852-.119642.16515-.163762.370559-.123758.569879l1.830305,9.119451c.156588.780209,1.283868.780186,1.440424-.000029l3.174623-14.026753c.114108-.655452-.65166-1.111206-1.177773-.6974ZM50.851244,31.626618l-16.874845,9.346873c-.701361.388479-.352994,1.449591.44513,1.355849l15.689627-1.842797c.264805-.031102.495531-.200436.59492-.445343.856603-2.110776,1.296364-4.365991,1.293914-6.643313,0-.323554-.026486-.772902-.057697-1.190087-.039698-.530634-.621909-.841035-1.091049-.581182Z" fill="#FF8A65"/>
</svg>
